<?xml version="1.0" encoding="UTF-8" standalone="no"?>
<!-- Created with Inkscape (http://www.inkscape.org/) -->

<svg
   xmlns:dc="http://purl.org/dc/elements/1.1/"
   xmlns:cc="http://creativecommons.org/ns#"
   xmlns:rdf="http://www.w3.org/1999/02/22-rdf-syntax-ns#"
   xmlns:svg="http://www.w3.org/2000/svg"
   xmlns="http://www.w3.org/2000/svg"
   xmlns:sodipodi="http://sodipodi.sourceforge.net/DTD/sodipodi-0.dtd"
   xmlns:inkscape="http://www.inkscape.org/namespaces/inkscape"
   width="210mm"
   height="210mm"
   viewBox="0 0 744.09449 744.09448"
   id="svg2"
   version="1.1"
   inkscape:version="0.91 r13725"
   sodipodi:docname="feel_your_conlang_as_polygon.svg">
  <defs
     id="defs4" />
  <sodipodi:namedview
     id="base"
     pagecolor="#ffffff"
     bordercolor="#666666"
     borderopacity="1.0"
     inkscape:pageopacity="0.0"
     inkscape:pageshadow="2"
     inkscape:zoom="1.2429181"
     inkscape:cx="390.72515"
     inkscape:cy="447.85873"
     inkscape:document-units="px"
     inkscape:current-layer="layer1"
     showgrid="false"
     inkscape:snap-intersection-paths="true"
     inkscape:object-paths="true"
     inkscape:window-width="1399"
     inkscape:window-height="856"
     inkscape:window-x="0"
     inkscape:window-y="22"
     inkscape:window-maximized="1" />
  <metadata
     id="metadata7">
    <rdf:RDF>
      <cc:Work
         rdf:about="">
        <dc:format>image/svg+xml</dc:format>
        <dc:type
           rdf:resource="http://purl.org/dc/dcmitype/StillImage" />
        <dc:title></dc:title>
      </cc:Work>
    </rdf:RDF>
  </metadata>
  <g
     inkscape:label="Layer 1"
     inkscape:groupmode="layer"
     id="layer1"
     transform="translate(0,-308.26772)">
    <path
       style="fill:#d35f5f"
       id="path3438"
       d="m 534.96561,462.12697 c 2.6953,-4.51043 5.97536,-8.62762 9.07361,-12.86254 4.84225,-6.09474 9.77868,-12.11632 14.79999,-18.06472 4.9919,-5.41967 9.86026,-10.9508 14.72412,-16.4853 4.37585,-5.07184 8.70964,-10.18187 12.95079,-15.36723 2.56995,-2.98025 5.02898,-6.05227 7.46358,-9.14316 0.89493,-1.28023 1.91146,-2.46282 2.68633,-3.81568 0.25106,0.32771 0.4067,-1.00541 0.73059,-0.94806 0,0 10.85685,2.64466 10.85685,2.64466 l 0,0 c -0.34891,0.94051 -0.89012,1.63352 -1.26962,2.59582 -0.0439,-0.0563 -0.0806,-0.21891 -0.13172,-0.16902 -0.36402,0.35535 -0.44628,0.92055 -0.74729,1.33063 -0.59112,0.80529 -1.47953,1.38287 -1.86245,2.35275 -2.51083,3.09492 -5.03162,6.18281 -7.70815,9.13759 -4.32085,5.22289 -8.82451,10.28518 -13.19809,15.46249 -4.83017,5.53305 -9.60215,11.12781 -14.63994,16.47174 -5.04369,5.72238 -9.8529,11.63842 -14.6449,17.56996 -0.69697,0.98693 -1.39393,1.97386 -2.0909,2.96079 -0.6238,0.89727 -1.24219,1.79834 -1.87141,2.69182 -1.60252,2.27553 -3.44234,4.40555 -4.53633,6.99584 0,0 -10.58506,-3.35838 -10.58506,-3.35838 z"
       inkscape:connector-curvature="0" />
    <path
       style="fill:#ff8080"
       id="path3440"
       d="m 541.00993,713.29111 c 1.06858,2.08155 1.62955,4.36446 2.60439,6.48579 0.66458,1.44618 1.64233,3.21148 2.37924,4.58689 4.78019,8.61111 10.83558,16.40221 17.1722,23.90608 6.29303,7.36404 13.2185,14.14686 19.80494,21.23583 3.20876,3.01703 6.30533,6.12392 9.21765,9.42746 0.37595,0.38473 2.65056,2.72314 3.0123,3.04888 0.48851,0.43989 1.05905,0.78359 1.54129,1.23035 0.5504,0.5099 1.01014,1.11107 1.54933,1.63283 0.24417,0.23628 2.08756,1.78485 2.40621,2.05374 0.51679,0.72811 1.42024,0.99595 2.03122,1.60549 0.42043,0.41942 0.72205,0.94469 1.11989,1.3856 1.15925,1.28476 2.6114,2.389 3.88654,3.55053 3.94891,3.72212 8.29932,6.98543 12.39423,10.53845 0.57557,0.54124 1.13528,1.09987 1.72672,1.62372 0.93691,0.82982 1.97163,1.54487 2.90617,2.37736 1.36407,1.21513 2.60209,2.5613 3.96617,3.77924 1.5551,1.83323 3.54313,3.24403 5.13618,5.02205 0.34456,0.41809 1.55947,2.62745 1.96344,2.66309 0,0 -10.33662,4.24129 -10.33662,4.24129 l 0,0 c -0.496,-0.8109 -1.05729,-1.71111 -1.78332,-2.32188 -1.68586,-1.52204 -3.14487,-3.28638 -4.83546,-4.80599 -2.72354,-2.6083 -5.5773,-5.06613 -8.34327,-7.62938 -4.20446,-3.50817 -8.41869,-7.00676 -12.52544,-10.62955 -2.42516,-2.12376 -4.68523,-4.40382 -7.14301,-6.48938 -2.96405,-2.78993 -5.91231,-5.60673 -8.69821,-8.57572 -2.97658,-3.18258 -6.05018,-6.27168 -8.97798,-9.49982 -6.50373,-7.20784 -13.1555,-14.28471 -19.50224,-21.63287 -6.55433,-7.86037 -12.88229,-15.97608 -18.03706,-24.84115 -1.16323,-2.12843 -1.67987,-2.9769 -2.66378,-5.12866 -0.96799,-2.11697 -1.66411,-4.35509 -2.8324,-6.38091 0,0 10.86068,-2.45936 10.86068,-2.45936 z"
       inkscape:connector-curvature="0" />
    <text
       xml:space="preserve"
       style="font-style:normal;font-weight:normal;font-size:16.25px;line-height:125%;font-family:sans-serif;letter-spacing:0px;word-spacing:0px;fill:#000000;fill-opacity:1;stroke:none;stroke-width:1px;stroke-linecap:butt;stroke-linejoin:miter;stroke-opacity:1"
       x="197.3764"
       y="382.36911"
       id="text3446"
       sodipodi:linespacing="125%"><tspan
         sodipodi:role="line"
         id="tspan3448"
         x="197.3764"
         y="382.36911" /></text>
    <path
       style="fill:#000000"
       id="path3450"
       d="m 282.10955,487.39874 c -0.31737,-0.19138 -0.6501,-0.35934 -0.95211,-0.57414 -0.51237,-0.36441 -0.95814,-0.82042 -1.48693,-1.16056 -0.48904,-0.31457 -1.04385,-0.51363 -1.55286,-0.79474 -1.50685,-0.83218 -3.01518,-1.6696 -4.47545,-2.58076 -0.64906,-0.53144 -1.53482,-0.39143 -2.24784,-0.72531 -0.43163,-0.20211 -0.78227,-0.54692 -1.1959,-0.78369 -2.30448,-1.31914 0.3341,0.31971 -1.78584,-0.71514 -0.38759,-0.1892 -0.7358,-0.45023 -1.1037,-0.67534 -2.74533,-2.20011 0.18493,-0.17285 -1.87638,-0.96203 -0.41379,-0.15842 -0.74623,-0.48749 -1.15584,-0.65641 -0.28801,-0.11878 -0.62696,-0.075 -0.91362,-0.19705 -2.5507,-1.08555 -0.008,-0.43498 -2.0204,-0.8769 -1.52521,0.0663 -1.65987,-0.67206 -2.74418,-1.19483 -0.39317,-0.18956 -0.40024,0.33411 -1.54176,-0.46314 0,0 9.03694,-6.57846 9.03694,-6.57846 l 0,0 c 0.67716,-0.10287 1.13214,0.54832 1.71116,0.78765 0.10872,0.0449 0.23247,-0.0726 0.34871,-0.0545 0.68577,0.10695 1.32995,0.45068 1.95138,0.72416 1.39301,0.72706 2.90445,1.23168 4.27423,2.00346 0.45833,0.25823 0.86231,0.60489 1.31621,0.87083 0.23194,0.13588 0.49021,0.22075 0.73532,0.33112 1.02764,0.40965 1.92977,0.99556 2.93119,1.45143 1.20117,0.54681 2.46605,0.98144 3.53384,1.80581 3.15212,1.7855 6.26627,3.6765 9.09678,5.94606 0,0 -9.88295,5.07245 -9.88295,5.07245 z"
       inkscape:connector-curvature="0" />
    <path
       style="fill:#000000"
       id="path3452"
       d="m 595.6292,388.0711 c 5.0896,-0.99942 10.29606,-1.24357 15.46632,-1.49358 5.52455,-0.20378 11.05369,-0.22453 16.58094,-0.30619 0.57677,-0.0111 1.15354,-0.0222 1.73031,-0.0332 0,0 7.1181,8.33044 7.1181,8.33044 l 0,0 c -0.59162,-0.0106 -1.18323,-0.0212 -1.77484,-0.0318 -5.49555,-0.0602 -10.99188,-0.0585 -16.48648,0.0772 -4.82919,0.1429 -9.66651,0.32003 -14.4585,0.97763 0,0 -8.17585,-7.52049 -8.17585,-7.52049 z"
       inkscape:connector-curvature="0" />
    <path
       style="fill:#000000"
       id="path3460"
       d="m 631.2706,813.71514 c 3.29426,0.0922 6.59086,0.0607 9.88616,0.0707 2.16465,0.0176 4.32936,0.0252 6.49407,0.0304 0.7839,0.002 3.13559,0.009 2.3517,0.004 -5.44942,-0.0333 -6.70815,0.0536 -2.74401,-0.11313 1.68147,-0.0453 3.35874,-0.0393 5.03859,-0.12267 0,0 7.47638,8.06848 7.47638,8.06848 l 0,0 c -1.78397,0.17048 -3.57025,0.42771 -5.3669,0.26663 -6.78474,-0.0637 -13.57058,0.25261 -20.35689,0.18728 -3.33557,0.0101 -6.67234,-0.0205 -10.00693,0.0707 0,0 7.22783,-8.4627 7.22783,-8.4627 z"
       inkscape:connector-curvature="0" />
    <path
       style="fill:#000000"
       id="path3466"
       d="m 269.4339,835.93781 c 4.90632,0.13573 9.81595,0.15141 14.72392,0.13294 2.97926,-0.002 5.95719,-0.0908 8.93549,-0.14836 1.02227,-0.007 2.04423,-0.008 3.06651,-0.0112 0.79644,-0.0152 1.5926,-0.001 2.3891,-0.001 0.66028,-10e-4 1.32038,0.0111 1.98058,0.001 0,0 -7.2622,8.50294 -7.2622,8.50294 l 0,0 c -0.66095,-0.01 -1.32181,0.003 -1.98284,10e-4 -0.79582,-7e-5 -1.59131,0.0141 -2.38707,-10e-4 -1.01589,-0.003 -2.03145,-0.004 -3.04732,-0.0112 -2.89381,-0.0578 -5.78723,-0.14817 -8.68207,-0.14836 -4.98369,-0.0189 -9.96888,6e-5 -14.951,0.13294 0,0 7.2169,-8.4499 7.2169,-8.4499 z"
       inkscape:connector-curvature="0" />
    <text
       xml:space="preserve"
       style="font-style:normal;font-weight:normal;font-size:16.25px;line-height:125%;font-family:sans-serif;letter-spacing:0px;word-spacing:0px;fill:#000000;fill-opacity:1;stroke:none;stroke-width:1px;stroke-linecap:butt;stroke-linejoin:miter;stroke-opacity:1"
       x="186.11258"
       y="375.12808"
       id="text3468"
       sodipodi:linespacing="125%"><tspan
         sodipodi:role="line"
         id="tspan3470"
         x="186.11258"
         y="375.12808" /></text>
    <text
       xml:space="preserve"
       style="font-style:normal;font-weight:normal;font-size:16.25px;line-height:125%;font-family:sans-serif;letter-spacing:0px;word-spacing:0px;fill:#000000;fill-opacity:1;stroke:none;stroke-width:1px;stroke-linecap:butt;stroke-linejoin:miter;stroke-opacity:1"
       x="203.98842"
       y="390.34692"
       id="text3472"
       sodipodi:linespacing="125%"><tspan
         sodipodi:role="line"
         id="tspan3474"
         x="203.98842"
         y="390.34692" /></text>
    <text
       xml:space="preserve"
       style="font-style:normal;font-weight:normal;font-size:16.25px;line-height:125%;font-family:sans-serif;letter-spacing:0px;word-spacing:0px;fill:#000000;fill-opacity:1;stroke:none;stroke-width:1px;stroke-linecap:butt;stroke-linejoin:miter;stroke-opacity:1"
       x="200.49989"
       y="392.88638"
       id="text3476"
       sodipodi:linespacing="125%"><tspan
         sodipodi:role="line"
         id="tspan3478"
         x="200.49989"
         y="392.88638" /></text>
    <text
       xml:space="preserve"
       style="font-style:normal;font-weight:normal;font-size:16.25px;line-height:125%;font-family:sans-serif;letter-spacing:0px;word-spacing:0px;fill:#000000;fill-opacity:1;stroke:none;stroke-width:1px;stroke-linecap:butt;stroke-linejoin:miter;stroke-opacity:1"
       x="232.77698"
       y="468.45685"
       id="text3480"
       sodipodi:linespacing="125%"><tspan
         sodipodi:role="line"
         id="tspan3482"
         x="232.77698"
         y="468.45685">taq</tspan></text>
    <text
       xml:space="preserve"
       style="font-style:normal;font-weight:normal;font-size:16.25px;line-height:125%;font-family:sans-serif;letter-spacing:0px;word-spacing:0px;fill:#000000;fill-opacity:1;stroke:none;stroke-width:1px;stroke-linecap:butt;stroke-linejoin:miter;stroke-opacity:1"
       x="638.13403"
       y="396.17767"
       id="text3484"
       sodipodi:linespacing="125%"><tspan
         sodipodi:role="line"
         id="tspan3486"
         x="638.13403"
         y="396.17767">wa</tspan></text>
    <text
       xml:space="preserve"
       style="font-style:normal;font-weight:normal;font-size:16.25px;line-height:125%;font-family:sans-serif;letter-spacing:0px;word-spacing:0px;fill:#000000;fill-opacity:1;stroke:none;stroke-width:1px;stroke-linecap:butt;stroke-linejoin:miter;stroke-opacity:1"
       x="661.50641"
       y="820.53705"
       id="text3488"
       sodipodi:linespacing="125%"><tspan
         sodipodi:role="line"
         id="tspan3490"
         x="661.50641"
         y="820.53705">fe</tspan></text>
    <text
       xml:space="preserve"
       style="font-style:normal;font-weight:normal;font-size:16.25px;line-height:125%;font-family:sans-serif;letter-spacing:0px;word-spacing:0px;fill:#000000;fill-opacity:1;stroke:none;stroke-width:1px;stroke-linecap:butt;stroke-linejoin:miter;stroke-opacity:1"
       x="300.68576"
       y="847.81677"
       id="text3492"
       sodipodi:linespacing="125%"><tspan
         sodipodi:role="line"
         id="tspan3494"
         x="300.68576"
         y="847.81677">palkei</tspan></text>
    <text
       xml:space="preserve"
       style="font-style:normal;font-weight:normal;font-size:16.25px;line-height:125%;font-family:sans-serif;letter-spacing:0px;word-spacing:0px;fill:#000000;fill-opacity:1;stroke:none;stroke-width:1px;stroke-linecap:butt;stroke-linejoin:miter;stroke-opacity:1"
       x="476.4989"
       y="387.27841"
       id="text3496"
       sodipodi:linespacing="125%"><tspan
         sodipodi:role="line"
         id="tspan3498"
         x="476.4989"
         y="387.27841" /></text>
    <text
       xml:space="preserve"
       style="font-style:normal;font-weight:normal;font-size:16.25px;line-height:125%;font-family:sans-serif;letter-spacing:0px;word-spacing:0px;fill:#000000;fill-opacity:1;stroke:none;stroke-width:1px;stroke-linecap:butt;stroke-linejoin:miter;stroke-opacity:1"
       x="478.41592"
       y="389.89911"
       id="text3510"
       sodipodi:linespacing="125%"><tspan
         sodipodi:role="line"
         id="tspan3512"
         x="478.41592"
         y="389.89911" /></text>
    <text
       xml:space="preserve"
       style="font-style:normal;font-weight:normal;font-size:16.25px;line-height:125%;font-family:sans-serif;letter-spacing:0px;word-spacing:0px;fill:#000000;fill-opacity:1;stroke:none;stroke-width:1px;stroke-linecap:butt;stroke-linejoin:miter;stroke-opacity:1"
       x="478.45435"
       y="389.99332"
       id="text3514"
       sodipodi:linespacing="125%"><tspan
         sodipodi:role="line"
         id="tspan3516"
         x="478.45435"
         y="389.99332" /></text>
    <text
       xml:space="preserve"
       style="font-style:normal;font-weight:normal;font-size:16.25px;line-height:125%;font-family:sans-serif;letter-spacing:0px;word-spacing:0px;fill:#000000;fill-opacity:1;stroke:none;stroke-width:1px;stroke-linecap:butt;stroke-linejoin:miter;stroke-opacity:1"
       x="478.62363"
       y="599.88171"
       id="text3520"
       sodipodi:linespacing="125%"><tspan
         sodipodi:role="line"
         x="478.62363"
         y="599.88171"
         id="tspan3538" /></text>
    <text
       xml:space="preserve"
       style="font-style:normal;font-weight:normal;font-size:16.25px;line-height:125%;font-family:sans-serif;letter-spacing:0px;word-spacing:0px;fill:#000000;fill-opacity:1;stroke:none;stroke-width:1px;stroke-linecap:butt;stroke-linejoin:miter;stroke-opacity:1"
       x="266.09332"
       y="697.56049"
       id="text3526"
       sodipodi:linespacing="125%"><tspan
         sodipodi:role="line"
         id="tspan3528"
         x="266.09332"
         y="697.56049">wo</tspan><tspan
         sodipodi:role="line"
         x="266.09332"
         y="717.87299"
         id="tspan3530" /></text>
    <text
       xml:space="preserve"
       style="font-style:normal;font-weight:normal;font-size:16.25px;line-height:125%;font-family:sans-serif;letter-spacing:0px;word-spacing:0px;fill:#000000;fill-opacity:1;stroke:none;stroke-width:1px;stroke-linecap:butt;stroke-linejoin:miter;stroke-opacity:1"
       x="478.62363"
       y="599.88171"
       id="text3542"
       sodipodi:linespacing="125%"><tspan
         sodipodi:role="line"
         id="tspan3544"
         x="478.62363"
         y="599.88171" /></text>
    <text
       xml:space="preserve"
       style="font-style:normal;font-weight:normal;font-size:16.25px;line-height:125%;font-family:sans-serif;letter-spacing:0px;word-spacing:0px;fill:#000000;fill-opacity:1;stroke:none;stroke-width:1px;stroke-linecap:butt;stroke-linejoin:miter;stroke-opacity:1"
       x="484.85394"
       y="625.04138"
       id="text3546"
       sodipodi:linespacing="125%"><tspan
         sodipodi:role="line"
         id="tspan3548"
         x="484.85394"
         y="625.04138" /></text>
    <text
       xml:space="preserve"
       style="font-style:normal;font-weight:normal;font-size:16.25px;line-height:125%;font-family:sans-serif;letter-spacing:0px;word-spacing:0px;fill:#000000;fill-opacity:1;stroke:none;stroke-width:1px;stroke-linecap:butt;stroke-linejoin:miter;stroke-opacity:1"
       x="480.85406"
       y="625.94714"
       id="text3550"
       sodipodi:linespacing="125%"><tspan
         sodipodi:role="line"
         id="tspan3552"
         x="480.85406"
         y="625.94714" /></text>
    <text
       xml:space="preserve"
       style="font-style:normal;font-weight:normal;font-size:16.25px;line-height:125%;font-family:sans-serif;letter-spacing:0px;word-spacing:0px;fill:#000000;fill-opacity:1;stroke:none;stroke-width:1px;stroke-linecap:butt;stroke-linejoin:miter;stroke-opacity:1"
       x="502.30399"
       y="698.56055"
       id="text3554"
       sodipodi:linespacing="125%"><tspan
         sodipodi:role="line"
         id="tspan3556"
         x="502.30399"
         y="698.56055">wo</tspan><tspan
         sodipodi:role="line"
         x="502.30399"
         y="718.87305"
         id="tspan3558" /></text>
    <text
       xml:space="preserve"
       style="font-style:normal;font-weight:normal;font-size:16.25px;line-height:125%;font-family:sans-serif;letter-spacing:0px;word-spacing:0px;fill:#000000;fill-opacity:1;stroke:none;stroke-width:1px;stroke-linecap:butt;stroke-linejoin:miter;stroke-opacity:1"
       x="523.84723"
       y="480.28311"
       id="text3560"
       sodipodi:linespacing="125%"><tspan
         sodipodi:role="line"
         x="523.84723"
         y="480.28311"
         id="tspan3564">wo</tspan></text>
    <path
       style="fill:#000000"
       id="path3574"
       d="m 521.36072,448.64364 c 1.64132,1.03908 3.53911,1.57013 5.31257,2.35463 0.94836,0.17871 1.69725,0.80106 2.53689,1.2073 0.68457,0.33121 1.30057,0.55072 1.94192,0.99579 0.19774,0.13268 0.40717,0.24941 0.59323,0.39803 0.18956,0.15143 0.32501,0.36898 0.52981,0.49905 0.22467,0.1427 0.57731,-0.0598 0.79258,0.0967 0.43369,0.31533 0.71619,0.7993 1.09993,1.17382 1.18678,0.0791 -0.79445,-0.006 0.39421,-0.12309 0.0927,-0.009 0.1727,0.11564 0.26316,0.0936 0.0772,-0.0188 0.0683,-0.22353 0.1412,-0.19203 0.29644,0.12802 0.75545,0.7018 0.97599,0.95646 0.21891,-0.44593 -0.0661,-0.0385 0.39519,-0.0426 0.0791,-7e-4 0.0967,-0.20125 0.16808,-0.16735 0.45555,0.21622 1.01744,0.7551 1.493,1.03797 0.44166,0.41735 1.5331,1.59871 2.14316,1.44445 0.63366,0.17395 0.48512,1.02698 0.90733,1.38047 0.0371,0.031 0.06,-0.0758 0.09,-0.11375 0.0829,0.0472 0.18339,0.0721 0.24883,0.14159 0.48886,0.51894 0.11262,0.48625 0.48174,0.47957 0.50009,0.14591 0.5677,1.37764 1.05508,1.51427 0.0539,0.0151 0.0853,-0.0726 0.12793,-0.10886 0.0924,0.11961 0.18472,0.23923 0.27709,0.35885 0.17148,0.52716 0.39861,0.98081 0.71923,1.4223 0,0 -6.08949,1.91345 -6.08949,1.91345 l 0,0 c -0.17375,-0.31159 -0.25162,-0.69705 -0.51403,-0.93876 -0.0522,-0.048 0.0211,0.14026 0.0316,0.21039 -0.57706,-0.29506 -0.65035,-1.17784 -1.29349,-1.42308 -0.44255,-0.53534 -0.36306,-0.22526 -0.79381,-0.74406 -0.17537,-0.21122 -0.40349,-0.91458 -0.49724,-0.65655 -0.0368,0.10124 0.0488,0.20985 0.0732,0.31477 -0.75739,-0.57672 -1.47402,-1.29208 -2.32941,-1.69835 -0.0714,-0.0391 -0.63564,-0.35023 -0.66322,-0.35588 -0.0842,-0.0172 -0.16629,0.0996 -0.24756,0.0717 -0.4904,-0.16817 -1.02632,-0.62321 -1.40051,-0.95141 -0.0163,0.11959 0.12146,0.38411 0.003,0.36208 -0.7201,-0.13369 -1.36793,-0.90891 -1.88512,-1.34153 -0.0946,-0.0757 -0.18918,-0.1514 -0.28377,-0.2271 -0.0495,0.03 -0.0947,0.11115 -0.14849,0.0899 -0.82692,-0.32622 -1.37615,-1.11688 -2.2188,-1.42372 -1.40104,-0.61007 -2.74426,-1.33504 -4.18827,-1.85045 -1.86341,-0.7519 -3.702,-1.55508 -5.46917,-2.51392 0,0 5.22666,-3.64471 5.22666,-3.64471 z"
       inkscape:connector-curvature="0" />
    <path
       style="fill:#000000"
       id="path3580"
       d="m 541.00997,713.29111 c -1.83111,-0.0829 -3.65891,0.32515 -5.43794,0.72446 -1.79428,0.49632 -3.60299,0.94389 -5.3976,1.44092 -1.28006,0.14417 -2.49526,0.57376 -3.70387,1.00456 -0.63283,0.14843 -1.18137,0.52404 -1.791,0.76245 0,0 -4.51357,-4.5503 -4.51357,-4.5503 l 0,0 c 0.55202,0.22161 0.83514,0.20945 1.34225,-0.22654 0.59897,-0.20236 1.21445,-0.53023 1.81195,-0.70028 0.1918,-0.0546 0.40696,0.0151 0.5964,-0.0472 0.30824,-0.10137 0.58048,-0.29017 0.87073,-0.43526 0.2835,-0.0818 0.567,-0.16363 0.8505,-0.24544 1.42975,-0.0226 0.0969,0.0744 1.73285,-0.32877 1.17714,-0.29009 2.40188,-0.37427 3.50558,-0.94992 1.99581,-0.47721 3.97958,-0.90032 5.99728,-1.29178 0,0 4.13644,4.84314 4.13644,4.84314 z"
       inkscape:connector-curvature="0" />
    <path
       style="fill:#000000"
       id="path3586"
       d="m 138.06691,755.72631 c -0.30744,-2.88148 -0.82471,-5.73509 -1.17181,-8.61273 -0.17415,-1.44283 -0.32,-2.89187 -0.36887,-4.34502 -0.0147,-0.59121 -0.0161,-1.18302 -0.008,-1.77441 -0.003,-0.455 0.008,-0.90952 0.002,-1.36447 -0.0894,-1.0145 -0.38643,-2.02302 -0.54948,-3.03847 -0.13289,-0.73387 -0.19112,-1.47608 -0.2377,-2.21933 0,0 6.40395,-0.18851 6.40395,-0.18851 l 0,0 c 0.0261,0.61351 0.0838,1.22453 0.18409,1.83079 0.20889,1.20556 0.56051,2.3954 0.61596,3.62059 -0.008,0.46107 0.003,0.92177 -0.008,1.38285 -1.6e-4,0.54976 -0.0152,1.09934 -0.006,1.64917 0.0316,1.35153 0.11236,2.70059 0.26299,4.04467 0.32059,2.85293 0.79249,5.68191 1.22989,8.51835 0,0 -6.34908,0.49652 -6.34908,0.49652 z"
       inkscape:connector-curvature="0" />
    <path
       style="fill:#000000"
       id="path3588"
       d="m 522.54099,482.12866 c 2.07614,2.31063 4.21674,4.58635 6.41776,6.78087 0.83618,0.6736 1.6909,1.43715 2.36599,2.27761 0.2238,0.27862 0.35735,0.62196 0.57875,0.9025 0.11835,0.14996 0.28755,0.2516 0.43132,0.3774 0.1326,0.17244 0.26519,0.34488 0.39779,0.51731 0.43599,0.28103 0.50328,0.83023 0.82231,1.19277 0.069,0.0784 0.22489,0.0248 0.29644,0.10082 0.78533,0.83408 0.0508,0.56271 0.72098,0.74508 0,0 -5.71756,2.82666 -5.71756,2.82666 l 0,0 c -0.68476,-0.84706 -1.38123,-1.67607 -2.05975,-2.53119 -1.14646,-1.31872 -2.22565,-2.69269 -3.57363,-3.82763 -2.05793,-2.20305 -4.15424,-4.37528 -6.32779,-6.46366 0,0 5.64739,-2.89854 5.64739,-2.89854 z"
       inkscape:connector-curvature="0" />
    <path
       style="fill:#000000"
       id="path3590"
       d="m 503.92688,673.23995 c 0.43276,0.0406 0.86515,0.0853 1.29827,0.12187 0.43722,0.0369 2.94476,0.23081 3.35425,0.23552 0.61437,0.007 2.44296,0.0594 1.84196,-0.0683 -0.7477,-0.15887 -1.54903,0.14785 -2.29302,-0.0276 -0.61775,-0.14566 1.26864,-0.0429 1.90296,-0.0644 5.68529,-0.39761 11.36653,-0.2689 17.05608,-0.073 5.04718,0.61419 10.05246,1.45768 15.12143,1.8988 0,0 -4.32226,4.51394 -4.32226,4.51394 l 0,0 c -4.99429,-0.60109 -9.95056,-1.49515 -14.97257,-1.86291 0.4975,-0.0354 1.98999,-0.0704 1.49251,-0.10612 -0.81885,-0.0589 -1.64177,0.0225 -2.46261,0.0364 -2.5839,0.0439 -5.16771,0.11069 -7.74859,0.24731 -4.91146,0.24412 -9.83246,0.31012 -14.71901,-0.30975 0,0 4.4506,-4.54183 4.4506,-4.54183 z"
       inkscape:connector-curvature="0" />
    <path
       style="fill:#000000"
       id="path3545"
       d="m 281.15681,679.56139 c -4.05506,-1.68458 -8.04842,-3.52089 -12.07171,-5.28841 -2.12954,-0.92227 -4.06065,-2.26098 -6.15904,-3.24036 -1.5312,-0.71466 -3.14379,-1.11245 -4.6705,-1.84675 -1.19484,-0.47987 -2.44643,-0.86637 -3.73813,-0.72799 0,0 4.41119,-4.61413 4.41119,-4.61413 l 0,0 c 1.51217,0.37865 2.95419,0.99604 4.3606,1.65955 3.66899,1.51933 7.14529,3.38612 10.70206,5.14615 3.80505,1.67378 7.61293,3.69371 11.71516,4.4728 0,0 -4.54963,4.43914 -4.54963,4.43914 z"
       inkscape:connector-curvature="0" />
    <path
       style="fill:#000000"
       id="path3553"
       d="m 266.39641,702.19932 c 1.2977,3.54002 3.82093,6.41732 6.22249,9.25234 1.45738,1.98098 3.28941,3.64861 4.88799,5.50208 0.46647,0.54084 0.86092,1.14046 1.31681,1.69025 0.46945,0.24599 0.35778,0.94213 0.72553,1.25606 0.0592,0.0505 0.0837,-0.17176 0.16145,-0.16851 0.42981,0.0179 0.48164,0.71842 0.65408,1.11254 0,0 -6.15072,1.70308 -6.15072,1.70308 l 0,0 c 0.12254,0.90618 -1.02768,-1.43883 -1.29098,-1.63762 -1.86004,-2.4941 -4.06992,-4.70969 -5.9536,-7.1868 -2.59667,-3.16276 -5.23026,-6.37693 -6.79983,-10.20093 0,0 6.22678,-1.32249 6.22678,-1.32249 z"
       inkscape:connector-curvature="0" />
    <path
       style="fill:none;fill-rule:evenodd;stroke:#000000;stroke-width:1px;stroke-linecap:butt;stroke-linejoin:miter;stroke-opacity:1"
       d="m 140.86276,755.50766 132.96047,-33.18865 -4.38933,113.6188 z"
       id="path3567"
       inkscape:connector-curvature="0" />
    <path
       style="fill:none;fill-rule:evenodd;stroke:#000000;stroke-width:1px;stroke-linecap:butt;stroke-linejoin:miter;stroke-opacity:1"
       d="m 279.68621,485.67419 250.49677,11.51884 -26.56947,180.96062 -220.5356,-3.6966 z"
       id="path3577"
       inkscape:connector-curvature="0" />
    <path
       style="fill:#ff0000"
       d="m 391.15263,367.20454 c -58.57407,-1.02325 -106.65391,-2.01607 -106.8441,-2.20626 -0.33894,-0.33893 -3.43687,-157.57608 -3.46946,-176.09436 l -0.0166,-9.41711 2.61482,-0.48916 c 2.94684,-0.55128 245.07426,10.35103 245.5753,11.05755 0.0859,0.12113 -5.61665,39.50279 -12.67235,87.51481 -12.40205,84.39252 -12.89751,87.36812 -14.90375,89.5071 -1.14138,1.21689 -2.46005,2.16199 -2.9304,2.10022 -0.47034,-0.0618 -48.77941,-0.94952 -107.35348,-1.97279 z"
       id="path3579"
       inkscape:connector-curvature="0"
       transform="translate(0,308.26772)" />
    <path
       style="fill:#aa0000"
       d="M 210.02137,489.42936 C 177.93961,469.321 149.75166,451.67775 147.38148,450.22213 l -4.30942,-2.64658 64.63713,-16.16015 c 35.55042,-8.88809 64.76224,-16.03504 64.91516,-15.88213 0.26348,0.26348 -3.8571,110.12435 -4.13891,110.34985 -0.0735,0.0588 -26.38231,-16.3454 -58.46407,-36.45376 z"
       id="path3583"
       inkscape:connector-curvature="0"
       transform="translate(0,308.26772)" />
    <path
       style="fill:#aa0000"
       d=""
       id="path3585"
       inkscape:connector-curvature="0"
       transform="translate(0,308.26772)" />
  </g>
</svg>
